TITLE ""
FILE "Step3_Track33.mp3" MP3
  TRACK 01 AUDIO
    TITLE "Step3_Track33_01"
    INDEX 01 00:00:00
  TRACK 02 AUDIO
    TITLE "Step3_Track33_02"
    INDEX 01 00:00:24
  TRACK 03 AUDIO
    TITLE "Step3_Track33_03"
    INDEX 01 00:01:74
  TRACK 04 AUDIO
    TITLE "Step3_Track33_04"
    INDEX 01 00:02:54
  TRACK 05 AUDIO
    TITLE "Step3_Track33_05"
    INDEX 01 00:03:44
  TRACK 06 AUDIO
    TITLE "Step3_Track33_06"
    INDEX 01 00:03:54
  TRACK 07 AUDIO
    TITLE "Step3_Track33_07"
    INDEX 01 00:06:52
  TRACK 08 AUDIO
    TITLE "Step3_Track33_08"
    INDEX 01 00:06:70
  TRACK 09 AUDIO
    TITLE "Step3_Track33_09"
    INDEX 01 00:07:67
  TRACK 10 AUDIO
    TITLE "Step3_Track33_10"
    INDEX 01 00:07:69
  TRACK 11 AUDIO
    TITLE "Step3_Track33_11"
    INDEX 01 00:10:38
  TRACK 12 AUDIO
    TITLE "Step3_Track33_12"
    INDEX 01 00:10:62
  TRACK 13 AUDIO
    TITLE "Step3_Track33_13"
    INDEX 01 00:11:67
  TRACK 14 AUDIO
    TITLE "Step3_Track33_14"
    INDEX 01 00:12:04
  TRACK 15 AUDIO
    TITLE "Step3_Track33_15"
    INDEX 01 00:14:44
  TRACK 16 AUDIO
    TITLE "Step3_Track33_16"
    INDEX 01 00:14:73
  TRACK 17 AUDIO
    TITLE "Step3_Track33_17"
    INDEX 01 00:15:75
  TRACK 18 AUDIO
    TITLE "Step3_Track33_18"
    INDEX 01 00:16:03
  TRACK 19 AUDIO
    TITLE "Step3_Track33_19"
    INDEX 01 00:18:51
  TRACK 20 AUDIO
    TITLE "Step3_Track33_20"
    INDEX 01 00:19:04
  TRACK 21 AUDIO
    TITLE "Step3_Track33_21"
    INDEX 01 00:19:70
  TRACK 22 AUDIO
    TITLE "Step3_Track33_22"
    INDEX 01 00:20:13
  TRACK 23 AUDIO
    TITLE "Step3_Track33_23"
    INDEX 01 00:23:05
  TRACK 24 AUDIO
    TITLE "Step3_Track33_24"
    INDEX 01 00:23:15
  TRACK 25 AUDIO
    TITLE "Step3_Track33_25"
    INDEX 01 00:24:19
  TRACK 26 AUDIO
    TITLE "Step3_Track33_26"
    INDEX 01 00:24:28
  TRACK 27 AUDIO
    TITLE "Step3_Track33_27"
    INDEX 01 00:27:17
  TRACK 28 AUDIO
    TITLE "Step3_Track33_28"
    INDEX 01 00:27:31
  TRACK 29 AUDIO
    TITLE "Step3_Track33_29"
    INDEX 01 00:28:32
  TRACK 30 AUDIO
    TITLE "Step3_Track33_30"
    INDEX 01 00:28:34
  TRACK 31 AUDIO
    TITLE "Step3_Track33_31"
    INDEX 01 00:30:39
  TRACK 32 AUDIO
    TITLE "Step3_Track33_32"
    INDEX 01 00:30:60
  TRACK 33 AUDIO
    TITLE "Step3_Track33_33"
    INDEX 01 00:31:48
  TRACK 34 AUDIO
    TITLE "Step3_Track33_34"
    INDEX 01 00:31:64
  TRACK 35 AUDIO
    TITLE "Step3_Track33_35"
    INDEX 01 00:34:64
  TRACK 36 AUDIO
    TITLE "Step3_Track33_36"
    INDEX 01 00:34:74
  TRACK 37 AUDIO
    TITLE "Step3_Track33_37"
    INDEX 01 00:35:67
  TRACK 38 AUDIO
    TITLE "Step3_Track33_38"
    INDEX 01 00:35:75
  TRACK 39 AUDIO
    TITLE "Step3_Track33_39"
    INDEX 01 00:38:40
  TRACK 40 AUDIO
    TITLE "Step3_Track33_40"
    INDEX 01 00:38:60
  TRACK 41 AUDIO
    TITLE "Step3_Track33_41"
    INDEX 01 00:39:53
  TRACK 42 AUDIO
    TITLE "Step3_Track33_42"
    INDEX 01 00:39:67
  TRACK 43 AUDIO
    TITLE "Step3_Track33_43"
    INDEX 01 00:42:64
